<?xml version="1.0" encoding="utf-8"?>
<svg width="620.89375px" height="302.8px" xmlns="http://www.w3.org/2000/svg" viewBox="94.77656250000001 -0.7000000000000028 310.446875 151.4" style="background: rgba(0, 0, 0, 0);" preserveAspectRatio="xMidYMid" xmlns:bx="https://boxy-svg.com"><defs><linearGradient id="editing-gradient-gradient" x1="0.13432314919041471" x2="0.8656768508095853" y1="0.15900081996875076" y2="0.8409991800312493" gradientUnits="objectBoundingBox"><stop offset="0" stop-color="#f97316"/><stop offset="1" stop-color="#ff4400"/></linearGradient><bx:export><bx:file format="svg"/></bx:export><linearGradient id="gradient-1" x1="0.13432314919041471" x2="0.8656768508095853" y1="0.15900081996875076" y2="0.8409991800312493" gradientUnits="objectBoundingBox"><stop offset="0" stop-color="#f97316"/><stop offset="1" stop-color="#ff4400"/></linearGradient></defs><g><g transform="matrix(0.041509, 0, 0, 0.059877, 257.469937, 71.30516)" style=""><path d="M25.15 0L2.43 0L2.43-54.98L24.45-54.98L24.45-44.35L13.63-44.35L13.63-33.66L24-33.66L24-23.30L13.63-23.30L13.63-10.69L25.15-10.69L25.15 0ZM41.60 0.51L41.60 0.51Q35.58 0.51 31.97-3.26L31.97-3.26L31.97-3.26Q28.35-7.04 28.35-13.63L28.35-13.63L28.35-38.98L28.35-38.98Q28.35-47.17 31.62-51.33L31.62-51.33L31.62-51.33Q34.88-55.49 41.86-55.49L41.86-55.49L41.86-55.49Q47.94-55.49 51.65-52.16L51.65-52.16L51.65-52.16Q55.36-48.83 55.36-42.56L55.36-42.56L55.36-33.09L44.42-33.09L44.42-41.22L44.42-41.22Q44.42-43.58 43.84-44.48L43.84-44.48L43.84-44.48Q43.26-45.38 41.86-45.38L41.86-45.38L41.86-45.38Q40.38-45.38 39.84-44.35L39.84-44.35L39.84-44.35Q39.30-43.33 39.30-41.34L39.30-41.34L39.30-13.76L39.30-13.76Q39.30-11.58 39.94-10.59L39.94-10.59L39.94-10.59Q40.58-9.60 41.86-9.60L41.86-9.60L41.86-9.60Q44.42-9.60 44.42-13.76L44.42-13.76L44.42-23.68L55.49-23.68L55.49-13.31L55.49-13.31Q55.49 0.51 41.60 0.51L41.60 0.51ZM71.81 0.51L71.81 0.51Q57.92 0.51 57.92-13.57L57.92-13.57L57.98-17.28L69.18-17.28L69.25-11.78L69.25-11.78Q69.25-10.11 69.89-9.25L69.89-9.25L69.89-9.25Q70.53-8.38 72.00-8.38L72.00-8.38L72.00-8.38Q74.24-8.38 74.24-12.03L74.24-12.03L74.24-12.03Q74.24-14.72 73.18-16.26L73.18-16.26L73.18-16.26Q72.13-17.79 69.82-19.52L69.82-19.52L63.87-24.13L63.87-24.13Q60.80-26.50 59.46-29.02L59.46-29.02L59.46-29.02Q58.11-31.55 58.11-36.16L58.11-36.16L58.11-36.16Q58.11-39.74 60.00-42.27L60.00-42.27L60.00-42.27Q61.89-44.80 65.02-46.08L65.02-46.08L65.02-46.08Q68.16-47.36 72.00-47.36L72.00-47.36L72.00-47.36Q85.63-47.36 85.63-33.79L85.63-33.79L85.63-32.90L74.05-32.90L74.05-34.69L74.05-34.69Q74.05-36.35 73.50-37.54L73.50-37.54L73.50-37.54Q72.96-38.72 71.68-38.72L71.68-38.72L71.68-38.72Q70.53-38.72 69.92-38.05L69.92-38.05L69.92-38.05Q69.31-37.38 69.31-36.22L69.31-36.22L69.31-36.22Q69.31-33.66 71.30-32.26L71.30-32.26L78.21-27.20L78.21-27.20Q81.92-24.45 83.90-21.22L83.90-21.22L83.90-21.22Q85.89-17.98 85.89-13.06L85.89-13.06L85.89-13.06Q85.89-6.53 82.18-3.01L82.18-3.01L82.18-3.01Q78.46 0.51 71.81 0.51L71.81 0.51ZM89.34 0L89.34-55.30L100.86-55.30L100.86-42.24L100.86-42.24Q102.66-47.36 107.71-47.36L107.71-47.36L107.71-47.36Q112.45-47.36 114.88-44.35L114.88-44.35L114.88-44.35Q117.31-41.34 117.31-36.10L117.31-36.10L117.31 0L106.11 0L106.11-35.39L106.11-35.39Q106.11-36.93 105.41-37.89L105.41-37.89L105.41-37.89Q104.70-38.85 103.36-38.85L103.36-38.85L103.36-38.85Q102.21-38.85 101.54-37.86L101.54-37.86L101.54-37.86Q100.86-36.86 100.86-35.46L100.86-35.46L100.86 0L89.34 0ZM130.18 0.51L130.18 0.51Q124.74 0.51 122.72-3.10L122.72-3.10L122.72-3.10Q120.70-6.72 120.70-13.44L120.70-13.44L120.70-13.44Q120.70-18.94 122.14-21.89L122.14-21.89L122.14-21.89Q123.58-24.83 126.14-26.21L126.14-26.21L126.14-26.21Q128.70-27.58 133.95-29.25L133.95-29.25L137.02-30.27L137.02-30.40L137.02-35.07L137.02-35.07Q137.02-36.93 136.29-37.92L136.29-37.92L136.29-37.92Q135.55-38.91 134.53-38.91L134.53-38.91L134.53-38.91Q133.63-38.91 132.96-38.08L132.96-38.08L132.96-38.08Q132.29-37.25 132.29-35.84L132.29-35.84L132.29-33.02L121.41-33.02L121.41-34.56L121.41-34.56Q121.41-41.47 124.64-44.42L124.64-44.42L124.64-44.42Q127.87-47.36 135.17-47.36L135.17-47.36L135.17-47.36Q140.99-47.36 144.64-44.32L144.64-44.32L144.64-44.32Q148.29-41.28 148.29-35.71L148.29-35.71L148.29 0L137.15 0L137.15-5.57L137.15-5.57Q136.32-2.69 134.50-1.09L134.50-1.09L134.50-1.09Q132.67 0.51 130.18 0.51L130.18 0.51ZM134.59-8.19L134.59-8.19Q135.87-8.19 136.42-9.25L136.42-9.25L136.42-9.25Q136.96-10.30 136.96-11.84L136.96-11.84L136.96-24.90L136.96-24.90Q134.46-23.94 133.28-22.46L133.28-22.46L133.28-22.46Q132.10-20.99 132.10-18.37L132.10-18.37L132.10-12.35L132.10-12.35Q132.10-8.19 134.59-8.19L134.59-8.19ZM152.58 9.34L152.58-46.85L163.97-46.85L163.97-44.35L163.97-44.35Q166.40-47.36 170.69-47.36L170.69-47.36L170.69-47.36Q176.13-47.36 178.27-43.71L178.27-43.71L178.27-43.71Q180.42-40.06 180.42-33.60L180.42-33.60L180.42-16.26L180.42-16.26Q180.42-10.75 179.78-7.26L179.78-7.26L179.78-7.26Q179.14-3.78 176.96-1.63L176.96-1.63L176.96-1.63Q174.78 0.51 170.37 0.51L170.37 0.51L170.37 0.51Q166.14 0.51 163.97-1.86L163.97-1.86L163.97 9.34L152.58 9.34ZM166.66-8.19L166.66-8.19Q168.19-8.19 168.64-9.60L168.64-9.60L168.64-9.60Q169.09-11.01 169.09-13.70L169.09-13.70L169.09-33.60L169.09-33.60Q169.09-36.03 168.64-37.31L168.64-37.31L168.64-37.31Q168.19-38.59 166.59-38.59L166.59-38.59L166.59-38.59Q163.97-38.59 163.97-33.73L163.97-33.73L163.97-13.18L163.97-13.18Q163.97-10.82 164.51-9.50L164.51-9.50L164.51-9.50Q165.06-8.19 166.66-8.19L166.66-8.19ZM197.70 0.51L197.70 0.51Q190.46 0.51 187.33-3.46L187.33-3.46L187.33-3.46Q184.19-7.42 184.19-15.30L184.19-15.30L184.19-34.11L184.19-34.11Q184.19-40.58 187.90-43.97L187.90-43.97L187.90-43.97Q191.62-47.36 198.27-47.36L198.27-47.36L198.27-47.36Q211.78-47.36 211.78-34.11L211.78-34.11L211.78-30.72L211.78-30.72Q211.78-25.60 211.65-22.40L211.65-22.40L195.39-22.40L195.39-13.31L195.39-13.31Q195.39-10.88 195.90-9.50L195.90-9.50L195.90-9.50Q196.42-8.13 198.08-8.13L198.08-8.13L198.08-8.13Q199.36-8.13 199.90-8.90L199.90-8.90L199.90-8.90Q200.45-9.66 200.54-10.66L200.54-10.66L200.54-10.66Q200.64-11.65 200.64-13.57L200.64-13.57L200.64-18.11L211.78-18.11L211.78-15.42L211.78-15.42Q211.78-7.23 208.61-3.36L208.61-3.36L208.61-3.36Q205.44 0.51 197.70 0.51L197.70 0.51ZM195.33-27.97L200.64-27.97L200.64-33.98L200.64-33.98Q200.64-39.04 198.14-39.04L198.14-39.04L198.14-39.04Q195.33-39.04 195.33-33.98L195.33-33.98L195.33-27.97Z" fill="url(#editing-gradient-gradient)"/></g><path d="M 251.869 17.325 C 251.869 19.92 251.869 22.516 251.869 25.192 C 250.796 25.326 249.722 25.464 248.616 25.602 C 244.558 26.528 240.734 28.129 237.585 30.851 C 237.515 30.908 237.446 30.97 237.373 31.031 C 234.696 33.335 232.531 36.157 231.178 39.389 C 231.136 39.489 231.092 39.589 231.049 39.692 C 230.564 40.91 230.294 42.127 229.949 43.405 C 234.989 43.405 240.029 43.405 245.222 43.405 C 245.176 43.086 245.129 42.772 245.081 42.441 C 244.992 41.485 244.969 40.714 245.569 39.923 C 246.38 39.032 247.212 38.46 248.466 38.387 C 249.114 38.341 249.475 38.168 249.998 37.804 C 250.622 37.42 251.326 37.182 252.01 36.921 C 252.094 35.584 252.094 35.584 251.445 34.437 C 251.201 33.865 251.118 33.4 251.162 32.782 C 251.209 32.736 251.256 32.69 251.303 32.644 C 251.315 32.363 251.325 32.083 251.33 31.803 C 251.381 29.783 251.381 29.783 252.152 29.054 C 253.228 28.194 254.139 28.09 255.546 28.09 C 255.546 24.539 255.546 20.984 255.546 17.325 C 261.761 17.682 267.84 19.64 272.799 23.395 C 273.014 23.56 273.014 23.56 273.232 23.725 C 275.21 25.265 277.029 26.981 278.597 28.916 C 278.708 29.05 278.819 29.181 278.932 29.315 C 281.217 32.095 283.39 35.738 284.113 39.266 C 281.406 39.266 278.699 39.266 275.91 39.266 C 275.397 38.31 274.884 37.354 274.355 36.368 C 271.599 32.045 268.112 29.388 263.466 27.123 C 263.466 31.085 263.466 35.047 263.466 39.132 C 263.652 39.22 263.839 39.309 264.031 39.405 C 264.643 39.931 265.118 40.433 265.193 41.255 C 265.2 41.766 265.182 42.226 265.057 42.726 C 265.017 43.179 265.087 43.298 265.295 43.693 C 265.928 45.023 265.64 46.118 265.151 47.442 C 264.223 49.843 264.223 49.843 263.607 50.444 C 263.565 50.77 263.565 50.77 263.573 51.153 C 263.573 51.304 263.572 51.454 263.572 51.608 C 263.573 51.774 263.574 51.939 263.575 52.11 C 263.575 52.37 263.575 52.37 263.575 52.636 C 263.574 53.113 263.576 53.59 263.578 54.067 C 263.58 54.565 263.58 55.063 263.581 55.561 C 263.582 56.505 263.584 57.449 263.587 58.392 C 263.59 59.467 263.591 60.541 263.593 61.615 C 263.596 63.825 263.601 66.035 263.607 68.245 C 263.971 68.068 264.335 67.892 264.699 67.714 C 264.801 67.665 264.904 67.615 265.01 67.564 C 266.592 66.793 268.068 65.931 269.405 64.795 C 269.576 64.651 269.576 64.651 269.751 64.504 C 270.113 64.193 270.467 63.874 270.82 63.553 C 270.942 63.445 271.064 63.337 271.189 63.225 C 273.384 61.195 275.078 58.546 276.106 55.773 C 276.193 55.55 276.193 55.55 276.335 55.412 C 276.587 55.399 276.839 55.396 277.091 55.397 C 277.333 55.397 277.333 55.397 277.58 55.397 C 277.755 55.397 277.931 55.398 278.112 55.399 C 278.38 55.399 278.38 55.399 278.653 55.399 C 279.129 55.4 279.605 55.401 280.081 55.402 C 280.567 55.404 281.051 55.405 281.538 55.405 C 282.491 55.407 283.443 55.409 284.396 55.412 C 284.193 56.341 283.936 57.219 283.601 58.112 C 283.526 58.311 283.526 58.311 283.45 58.514 C 282.998 59.688 282.464 60.797 281.85 61.898 C 281.764 62.057 281.677 62.216 281.587 62.38 C 280.528 64.262 279.262 65.996 277.749 67.556 C 277.592 67.733 277.436 67.911 277.281 68.09 C 276.135 69.368 274.886 70.522 273.506 71.557 C 273.428 71.617 273.349 71.676 273.268 71.738 C 271.954 72.73 270.594 73.565 269.122 74.317 C 269.03 74.365 268.937 74.413 268.841 74.462 C 267.762 75.014 266.667 75.516 265.543 75.973 C 265.44 76.015 265.338 76.056 265.233 76.099 C 264.811 76.267 264.491 76.387 264.031 76.387 C 264.03 76.303 264.029 76.219 264.027 76.132 C 264.016 73.916 264.016 73.916 263.324 71.833 C 263.26 71.703 263.196 71.572 263.13 71.437 C 262.964 71.106 262.794 70.779 262.617 70.453 C 262.524 70.681 262.43 70.909 262.334 71.143 C 262.174 70.675 262.232 70.378 262.334 69.901 C 262.351 69.466 262.353 69.051 262.282 68.62 C 262.146 67.765 262.266 67.197 262.616 66.402 C 263.25 64.78 263.014 62.677 262.475 61.07 C 262.416 60.879 262.357 60.689 262.299 60.499 C 261.923 59.317 261.466 58.208 260.907 57.098 C 259.789 54.847 259.789 54.847 259.789 53.894 C 259.609 54.003 259.429 54.112 259.25 54.222 C 259.149 54.283 259.049 54.343 258.946 54.406 C 258.707 54.554 258.469 54.707 258.233 54.86 C 258.425 54.425 258.632 54.18 259.011 53.885 C 259.356 53.617 259.537 53.434 259.789 53.066 C 259.828 52.672 259.854 52.288 259.868 51.893 C 259.913 50.769 259.913 50.769 260.072 50.306 C 259.968 50.306 259.865 50.306 259.759 50.305 C 258.13 50.246 256.626 49.754 255.144 49.107 C 254.564 48.873 254.313 48.897 253.708 49.064 C 253.314 49.265 252.93 49.48 252.545 49.695 C 251.722 50.109 250.946 50.181 250.031 50.168 C 250.105 50.661 250.186 51.152 250.27 51.643 C 250.291 51.782 250.312 51.921 250.333 52.064 C 250.475 52.885 250.599 53.362 251.303 53.894 C 251.492 54.078 251.681 54.262 251.869 54.446 C 251.822 54.537 251.776 54.628 251.728 54.722 C 251.52 54.547 251.313 54.372 251.107 54.196 C 250.863 54.003 250.863 54.003 250.455 53.894 C 250.432 53.983 250.41 54.072 250.387 54.163 C 250.049 55.438 250.703 46.22 250.127 47.41 C 248.769 50.226 228.15 45.906 229.257 48.975 C 229.394 49.322 227.511 54.889 227.689 55.156 C 227.927 55.741 229.572 60.405 229.507 61.017 C 229.495 61.516 238.207 68.791 238.419 69.234 C 238.435 69.691 240.817 70.394 240.8 70.765 C 240.686 70.751 244.084 73.35 244.229 72.951 C 244.14 72.597 247.352 73.57 247.3 73.234 C 246.327 75.042 246.35 73.618 246.778 75.697 C 246.791 75.938 246.796 76.18 246.795 76.421 C 246.796 76.542 246.796 76.662 246.796 76.786 C 246.778 77.077 246.778 77.077 246.637 77.215 C 245.651 77.32 244.794 76.988 243.871 76.68 C 243.701 76.624 243.532 76.569 243.36 76.511 C 237.523 74.536 232.173 70.982 228.393 66.175 C 228.325 66.09 228.258 66.004 228.187 65.915 C 223.973 60.569 222 54.184 221.994 47.486 C 221.994 47.37 221.994 47.254 221.994 47.133 C 221.995 45.356 222.064 43.632 222.454 41.889 C 222.49 41.72 222.49 41.72 222.53 41.543 C 224.175 34.256 228.403 27.679 234.616 23.257 C 234.757 23.157 234.897 23.057 235.043 22.95 C 239.877 19.552 245.886 17.325 251.869 17.325 Z" fill="#E9822C" style="stroke-width: 1;"/><path d="M 251.974 17.325 C 251.974 19.924 251.974 22.52 251.974 25.195 C 250.901 25.33 249.828 25.468 248.722 25.606 C 244.663 26.532 240.839 28.133 237.691 30.855 C 237.621 30.912 237.551 30.974 237.479 31.035 C 234.802 33.335 232.637 36.157 231.283 39.389 C 231.24 39.489 231.197 39.593 231.154 39.696 C 230.669 40.91 230.399 42.13 230.054 43.409 C 235.094 43.409 240.135 43.409 245.327 43.409 C 245.281 43.09 245.234 42.772 245.186 42.441 C 245.098 41.489 245.074 40.718 245.674 39.923 C 246.485 39.032 247.318 38.464 248.571 38.391 C 249.229 38.345 249.592 38.157 250.124 37.792 C 250.644 37.477 251.233 37.301 251.833 37.201 C 251.973 37.247 252.113 37.289 252.257 37.339 C 252.63 37.285 252.63 37.285 252.964 37.201 C 252.918 37.339 252.871 37.473 252.823 37.615 C 252.441 37.788 252.067 37.938 251.674 38.08 C 251.026 38.314 250.446 38.541 249.894 38.952 C 249.473 39.262 249.181 39.351 248.642 39.355 C 247.753 39.405 247.195 39.623 246.547 40.226 C 246.075 40.798 246.074 41.343 246.109 42.057 C 246.202 42.595 246.376 42.86 246.742 43.275 C 246.788 43.363 246.835 43.455 246.883 43.547 C 246.65 43.455 246.416 43.367 246.176 43.275 C 246.132 43.401 246.088 43.532 246.043 43.67 C 245.893 44.1 245.893 44.1 245.752 44.376 C 245.445 45.932 246.333 47.347 247.047 48.685 C 247.124 48.831 247.124 48.831 247.204 48.98 C 247.25 49.067 247.297 49.153 247.346 49.243 C 247.449 49.482 247.449 49.482 247.449 49.896 C 247.402 49.987 247.356 50.078 247.307 50.172 C 247.214 50.172 247.121 50.172 247.025 50.172 C 247.025 50.49 247.025 50.809 247.025 51.138 C 241.424 51.138 235.824 51.138 230.054 51.138 C 231.148 55.835 232.728 59.56 236.135 63.005 C 236.3 63.179 236.3 63.179 236.468 63.357 C 239.375 66.34 243.306 68.099 247.307 69.215 C 247.307 68.531 247.307 67.848 247.307 67.145 C 248.015 67.421 248.015 67.421 248.156 67.697 C 248.161 68.181 248.146 68.664 248.133 69.148 C 248.156 69.616 248.247 69.897 248.439 70.319 C 248.457 70.776 248.457 70.776 248.439 71.146 C 248.345 71.101 248.252 71.055 248.156 71.009 C 248.068 70.655 248.068 70.655 248.015 70.319 C 247.041 72.127 246.455 73.622 246.883 75.7 C 246.896 75.942 246.902 76.183 246.901 76.425 C 246.901 76.545 246.902 76.665 246.902 76.789 C 246.883 77.08 246.883 77.08 246.742 77.218 C 245.756 77.324 244.899 76.992 243.975 76.683 C 243.807 76.628 243.638 76.572 243.464 76.514 C 237.629 74.539 232.278 70.986 228.499 66.179 C 228.43 66.093 228.362 66.007 228.292 65.919 C 224.077 60.572 222.104 54.188 222.099 47.49 C 222.099 47.374 222.099 47.258 222.099 47.137 C 222.101 45.36 222.17 43.635 222.559 41.892 C 222.596 41.72 222.596 41.72 222.634 41.547 C 224.28 34.26 228.509 27.679 234.721 23.26 C 234.862 23.161 235.003 23.057 235.148 22.953 C 239.981 19.559 245.991 17.325 251.974 17.325 Z" fill="#E9842C" style="stroke-width: 1;"/><path d="M 255.766 49.115 C 255.944 49.187 256.12 49.26 256.297 49.335 C 257.29 49.749 258.247 50.038 259.319 50.189 C 259.481 50.212 259.643 50.235 259.809 50.259 C 259.93 50.276 260.052 50.292 260.177 50.31 C 260.169 50.756 260.156 51.201 260.141 51.647 C 260.139 51.772 260.137 51.898 260.135 52.028 C 260.1 52.962 259.903 53.363 259.198 54.008 C 259.113 54.077 259.027 54.146 258.939 54.217 C 258.852 54.287 258.766 54.358 258.676 54.431 C 258.611 54.482 258.547 54.534 258.48 54.587 C 258.924 54.221 259.343 54.067 259.894 53.898 C 259.95 54.055 260.007 54.212 260.066 54.374 C 260.509 55.585 260.984 56.767 261.538 57.934 C 262.066 59.053 262.514 60.163 262.864 61.349 C 262.898 61.463 262.933 61.578 262.969 61.696 C 263.4 63.395 263.276 65.357 262.722 67.007 C 262.67 67.089 262.617 67.172 262.563 67.257 C 262.362 67.747 262.448 68.23 262.493 68.749 C 262.508 68.961 262.524 69.172 262.54 69.384 C 262.554 69.556 262.567 69.727 262.581 69.904 C 262.581 69.996 262.581 70.087 262.581 70.18 C 262.64 70.256 262.7 70.331 262.761 70.409 C 263.08 70.832 263.294 71.292 263.518 71.768 C 263.562 71.859 263.606 71.951 263.651 72.045 C 263.965 72.706 264.154 73.236 264.155 73.962 C 264.156 74.076 264.156 74.191 264.156 74.308 C 264.155 74.426 264.155 74.544 264.154 74.665 C 264.155 74.783 264.155 74.901 264.156 75.023 C 264.156 75.137 264.156 75.251 264.155 75.368 C 264.155 75.472 264.155 75.575 264.155 75.682 C 264.136 75.985 264.098 76.241 263.995 76.528 C 263.681 76.693 263.681 76.693 263.279 76.822 C 263.139 76.866 262.998 76.911 262.853 76.958 C 262.716 76.998 262.58 77.038 262.44 77.08 C 262.276 77.13 262.276 77.13 262.11 77.181 C 261.555 77.335 261.148 77.404 260.601 77.218 C 260.366 76.911 260.366 76.911 260.168 76.52 C 260.062 76.311 260.062 76.311 259.954 76.099 C 259.887 75.968 259.821 75.836 259.752 75.7 C 259.693 75.608 259.634 75.517 259.573 75.422 C 258.982 74.485 259.066 73.349 259.252 72.295 C 259.314 72.047 259.39 71.803 259.47 71.561 C 259.563 71.561 259.656 71.561 259.752 71.561 C 259.948 71.785 260.137 72.015 260.318 72.251 C 260.229 72.12 260.141 71.991 260.049 71.857 C 259.933 71.683 259.816 71.51 259.699 71.336 C 259.641 71.251 259.583 71.166 259.522 71.078 C 259.178 70.563 258.934 70.089 258.762 69.49 C 259.052 69.531 259.342 69.571 259.633 69.612 C 259.719 69.618 259.805 69.623 259.894 69.629 C 259.941 69.583 259.987 69.538 260.035 69.49 C 259.907 69.496 259.779 69.502 259.646 69.508 C 259.185 69.49 259.001 69.451 258.621 69.215 C 258.447 68.966 258.447 68.966 258.312 68.68 C 258.266 68.586 258.22 68.493 258.173 68.396 C 257.908 67.753 257.885 67.136 257.869 66.448 C 257.866 66.342 257.863 66.236 257.86 66.126 C 257.851 65.787 257.843 65.448 257.834 65.109 C 257.828 64.879 257.822 64.649 257.816 64.419 C 257.801 63.856 257.787 63.292 257.773 62.729 C 257.726 63.868 257.679 65.006 257.631 66.179 C 257.083 65.644 256.814 65.234 256.482 64.575 C 256.432 64.476 256.382 64.377 256.331 64.275 C 255.971 63.538 255.716 62.859 255.651 62.039 C 255.629 61.832 255.629 61.832 255.607 61.621 C 255.561 60.874 255.559 60.385 256.076 59.805 C 256.216 59.675 256.357 59.545 256.5 59.417 C 256.5 59.372 256.5 59.326 256.5 59.279 C 256.404 59.393 256.307 59.507 256.208 59.624 C 255.793 59.969 255.793 59.969 255.298 60.047 C 254.699 59.953 254.512 59.845 254.096 59.417 C 253.796 59.013 253.517 58.599 253.247 58.175 C 253.592 58.889 253.912 59.42 254.564 59.9 C 255.054 60.3 255.054 60.3 255.183 60.641 C 255.278 62.172 254.394 64.117 253.53 65.351 C 253.343 65.533 253.157 65.715 252.964 65.903 C 252.871 64.901 252.778 63.899 252.681 62.867 C 252.689 63.269 252.689 63.269 252.696 63.679 C 252.699 63.946 252.702 64.212 252.705 64.478 C 252.708 64.749 252.713 65.019 252.719 65.288 C 252.73 66.725 252.735 68.243 251.691 69.353 C 251.308 69.54 250.983 69.5 250.56 69.49 C 250.708 69.666 250.708 69.666 251.037 69.637 C 251.221 69.633 251.221 69.633 251.409 69.629 C 251.549 69.629 251.689 69.629 251.833 69.629 C 251.413 70.517 251.413 70.517 250.984 71.422 C 251.078 71.422 251.171 71.422 251.267 71.422 C 251.606 72.621 251.757 73.895 251.4 75.105 C 251.073 75.651 250.733 76.186 250.379 76.715 C 250.13 77.078 250.13 77.078 249.924 77.467 C 249.854 77.567 249.784 77.667 249.712 77.77 C 248.768 77.902 247.924 77.627 247.025 77.356 C 246.501 74.791 246.342 72.739 247.835 70.419 C 247.894 70.34 247.953 70.262 248.015 70.18 C 248.061 70.18 248.108 70.18 248.156 70.18 C 248.203 70.454 248.249 70.727 248.297 71.009 C 248.267 70.744 248.267 70.744 248.235 70.474 C 248.224 70.375 248.213 70.275 248.2 70.173 C 248.168 69.894 248.168 69.894 248.015 69.629 C 247.993 69.108 248.014 68.664 248.129 68.154 C 248.234 67.459 247.92 66.911 247.622 66.294 C 246.77 64.374 247.292 61.855 248.015 59.969 C 248.419 59.014 248.861 58.076 249.302 57.137 C 249.795 56.08 250.196 55.002 250.56 53.898 C 251.106 54.006 251.41 54.233 251.833 54.587 C 251.728 54.488 251.623 54.388 251.515 54.286 C 250.814 53.587 250.47 53.087 250.313 52.112 C 250.295 52.017 250.277 51.922 250.259 51.823 C 250.161 51.268 250.118 50.735 250.136 50.172 C 250.268 50.153 250.4 50.135 250.535 50.115 C 251.75 49.915 252.614 49.635 253.657 48.975 C 254.396 48.666 255.046 48.848 255.766 49.115 Z" fill="#050202" style="stroke-width: 1;"/><path d="M 276.763 55.399 C 276.906 55.399 277.049 55.399 277.196 55.4 C 277.438 55.4 277.438 55.4 277.685 55.4 C 277.86 55.4 278.036 55.401 278.217 55.402 C 278.485 55.402 278.485 55.402 278.759 55.402 C 279.234 55.403 279.71 55.404 280.187 55.406 C 280.672 55.407 281.157 55.408 281.643 55.409 C 282.595 55.41 283.548 55.412 284.501 55.415 C 284.299 56.345 284.04 57.223 283.706 58.115 C 283.656 58.248 283.606 58.38 283.555 58.517 C 283.104 59.692 282.57 60.8 281.955 61.901 C 281.825 62.14 281.825 62.14 281.692 62.384 C 280.633 64.265 279.367 65.999 277.854 67.559 C 277.697 67.736 277.541 67.914 277.386 68.093 C 276.24 69.371 274.991 70.525 273.612 71.561 C 273.533 71.62 273.455 71.68 273.373 71.741 C 272.059 72.733 270.699 73.568 269.228 74.32 C 269.135 74.368 269.042 74.416 268.946 74.465 C 267.868 75.018 266.773 75.519 265.648 75.976 C 265.546 76.018 265.443 76.06 265.338 76.103 C 264.916 76.27 264.596 76.39 264.136 76.39 C 264.135 76.306 264.134 76.222 264.133 76.135 C 264.121 73.919 264.121 73.919 263.429 71.837 C 263.365 71.706 263.301 71.575 263.235 71.44 C 263.069 71.109 262.899 70.782 262.722 70.456 C 262.629 70.684 262.536 70.912 262.44 71.146 C 262.279 70.679 262.337 70.381 262.44 69.904 C 262.457 69.47 262.458 69.054 262.387 68.623 C 262.25 67.759 262.383 67.192 262.724 66.385 C 262.881 65.998 262.959 65.627 263.005 65.213 C 263.238 65.213 263.472 65.213 263.712 65.213 C 263.712 66.214 263.712 67.216 263.712 68.248 C 265.774 67.269 267.771 66.276 269.511 64.799 C 269.625 64.703 269.739 64.607 269.856 64.507 C 270.218 64.196 270.572 63.878 270.925 63.557 C 271.047 63.449 271.169 63.34 271.295 63.228 C 273.49 61.198 275.183 58.549 276.211 55.777 C 276.346 55.435 276.376 55.419 276.763 55.399 Z" fill="#DB4223" style="stroke-width: 1;"/><path d="M 257.207 35.957 C 257.254 35.957 257.3 35.957 257.348 35.957 C 257.352 36.041 257.356 36.126 257.359 36.21 C 257.367 36.322 257.375 36.433 257.384 36.544 C 257.39 36.656 257.397 36.763 257.404 36.874 C 257.522 37.32 257.683 37.466 258.055 37.754 C 258.429 37.942 258.814 38.099 259.205 38.253 C 260.284 38.687 260.284 38.687 260.601 38.994 C 260.961 39.063 261.317 39.117 261.68 39.167 C 262.789 39.347 263.555 39.639 264.231 40.556 C 264.561 41.205 264.512 41.877 264.419 42.583 C 264.267 42.929 264.114 43.125 263.854 43.409 C 263.994 43.363 264.134 43.321 264.278 43.275 C 264.918 44.181 265.093 44.805 264.985 45.893 C 264.851 46.379 264.66 46.832 264.455 47.292 C 264.406 47.408 264.356 47.524 264.306 47.643 C 263.428 49.69 263.428 49.69 263.005 49.896 C 262.347 49.968 261.686 50 261.025 50.034 C 260.873 50.043 260.721 50.052 260.565 50.062 C 258.513 50.132 256.657 49.433 254.803 48.654 C 254.803 48.563 254.803 48.472 254.803 48.378 C 255.151 48.132 255.5 47.903 255.863 47.679 C 255.971 47.613 256.078 47.545 256.188 47.477 C 259.399 45.494 259.399 45.494 260.548 45.403 C 260.69 45.39 260.832 45.38 260.978 45.367 C 261.087 45.36 261.196 45.351 261.308 45.342 C 260.841 45.296 260.375 45.251 259.894 45.205 C 259.85 44.15 259.863 43.478 260.627 42.668 C 260.712 42.595 260.797 42.518 260.884 42.441 C 260.79 42.441 260.697 42.441 260.601 42.441 C 260.461 42.127 260.321 41.808 260.177 41.478 C 260.223 41.616 260.27 41.75 260.318 41.892 C 260.427 42.633 260.155 43.036 259.778 43.651 C 259.546 44.085 259.501 44.445 259.47 44.928 C 259.393 44.909 259.315 44.889 259.236 44.867 C 258.052 44.584 257.126 44.6 255.934 44.859 C 254.299 45.198 252.608 45.226 250.984 44.791 C 250.963 44.669 250.963 44.669 250.942 44.548 C 250.831 43.977 250.743 43.605 250.392 43.125 C 250.033 42.557 250.141 42.257 250.277 41.616 C 250.137 41.889 249.997 42.165 249.853 42.441 C 249.713 42.441 249.573 42.441 249.429 42.441 C 249.499 42.499 249.568 42.557 249.64 42.614 C 249.731 42.691 249.822 42.764 249.915 42.841 C 250.005 42.914 250.095 42.987 250.188 43.063 C 250.462 43.309 250.555 43.455 250.574 43.816 C 250.569 44.096 250.565 44.373 250.56 44.652 C 250 44.652 249.44 44.652 248.863 44.652 C 248.863 44.743 248.863 44.834 248.863 44.928 C 249.017 44.923 249.171 44.919 249.329 44.914 C 250.48 44.889 251.478 44.939 252.595 45.248 C 253.805 45.554 255.528 45.333 256.641 44.791 C 257.71 44.705 258.622 44.794 259.611 45.205 C 259.611 45.296 259.611 45.386 259.611 45.479 C 259.475 45.542 259.34 45.604 259.201 45.669 C 258.138 46.164 257.128 46.7 256.146 47.335 C 253.917 48.774 251.942 49.908 249.208 49.939 C 249.03 49.945 249.03 49.945 248.849 49.951 C 248.309 49.956 247.957 49.938 247.472 49.693 C 247.052 49.214 246.827 48.707 246.582 48.128 C 246.512 47.966 246.512 47.966 246.439 47.801 C 246.347 47.588 246.255 47.374 246.164 47.16 C 246.082 46.969 245.997 46.78 245.908 46.591 C 245.515 45.756 245.411 44.912 245.738 44.031 C 245.871 43.774 246.022 43.52 246.176 43.275 C 246.316 43.275 246.456 43.275 246.6 43.275 C 246.507 43.171 246.414 43.067 246.317 42.964 C 245.871 42.296 245.883 41.547 246.035 40.787 C 246.448 40.065 247.064 39.527 247.873 39.27 C 248.123 39.251 248.374 39.239 248.624 39.228 C 249.371 39.178 249.748 38.971 250.333 38.533 C 250.882 38.191 251.487 37.999 252.108 37.815 C 252.415 37.719 252.415 37.719 252.823 37.477 C 253.04 36.986 253.04 36.986 253.106 36.51 C 253.45 36.613 253.45 36.613 253.813 36.786 C 253.928 37.078 253.928 37.078 253.954 37.339 C 253.861 37.339 253.767 37.339 253.671 37.339 C 253.71 37.865 253.71 37.865 253.954 38.303 C 254.051 37.961 254.096 37.7 254.096 37.339 C 254.142 37.247 254.189 37.155 254.237 37.063 C 254.33 37.109 254.424 37.155 254.52 37.201 C 255.207 37.297 255.759 37.285 256.34 36.89 C 256.688 36.613 256.957 36.325 257.207 35.957 Z" fill="#060402" style="stroke-width: 1;"/><path d="M 253.106 58.037 C 253.583 58.467 253.95 58.945 254.326 59.457 C 254.507 59.711 254.507 59.711 254.803 59.831 C 255.512 59.905 255.512 59.905 256.111 59.581 C 256.192 59.482 256.274 59.382 256.358 59.279 C 256.5 59.141 256.641 59.003 256.783 58.865 C 256.628 59.33 256.493 59.562 256.129 59.909 C 255.672 60.424 255.711 60.941 255.743 61.597 C 255.925 63.23 256.558 64.678 257.49 66.041 C 257.493 65.943 257.496 65.844 257.498 65.743 C 257.512 65.299 257.527 64.855 257.543 64.411 C 257.549 64.179 257.549 64.179 257.556 63.943 C 257.561 63.795 257.567 63.646 257.572 63.494 C 257.577 63.357 257.581 63.221 257.586 63.08 C 257.631 62.729 257.631 62.729 257.914 62.315 C 257.916 62.467 257.918 62.62 257.92 62.777 C 257.928 63.347 257.939 63.917 257.951 64.487 C 257.955 64.733 257.959 64.979 257.963 65.225 C 257.968 65.58 257.975 65.935 257.983 66.29 C 257.984 66.399 257.985 66.507 257.986 66.618 C 258.007 67.408 258.193 68.065 258.48 68.801 C 258.526 68.937 258.573 69.074 258.621 69.215 C 258.72 69.223 258.818 69.231 258.921 69.24 C 259.114 69.257 259.114 69.257 259.311 69.275 C 259.503 69.292 259.503 69.292 259.698 69.309 C 260.035 69.353 260.035 69.353 260.318 69.49 C 259.859 69.789 259.718 69.818 259.187 69.767 C 258.977 69.63 258.977 69.63 258.762 69.49 C 259.279 70.447 259.826 71.363 260.46 72.251 C 260.413 72.342 260.366 72.433 260.318 72.526 C 259.752 71.871 259.752 71.871 259.752 71.561 C 259.659 71.561 259.566 71.561 259.47 71.561 C 259.205 73.177 259.129 74.554 260.035 75.976 C 260.169 76.206 260.302 76.436 260.433 76.666 C 260.492 76.766 260.552 76.865 260.612 76.968 C 260.742 77.218 260.742 77.218 260.742 77.494 C 260.189 77.588 259.635 77.68 259.081 77.77 C 258.926 77.796 258.772 77.823 258.613 77.85 C 258.459 77.875 258.305 77.9 258.146 77.925 C 258.007 77.949 257.868 77.971 257.724 77.996 C 256.99 78.067 256.248 78.046 255.51 78.046 C 255.463 73.356 255.416 68.665 255.368 63.833 C 255.053 64.14 254.896 64.431 254.688 64.816 C 254.292 65.547 254.292 65.547 254.064 65.878 C 253.583 66.576 253.354 67.223 253.167 68.042 C 252.708 70.017 252.708 70.017 252.116 70.595 C 252.085 70.966 252.076 71.211 252.257 71.544 C 252.419 71.879 252.433 72.1 252.43 72.469 C 252.43 72.593 252.43 72.718 252.43 72.846 C 252.429 72.979 252.428 73.112 252.426 73.249 C 252.426 73.386 252.425 73.523 252.425 73.664 C 252.423 74.101 252.42 74.539 252.416 74.976 C 252.415 75.272 252.414 75.569 252.412 75.866 C 252.409 76.593 252.405 77.319 252.399 78.046 C 252.195 78.047 251.992 78.047 251.789 78.048 C 251.676 78.049 251.563 78.049 251.447 78.049 C 251.074 78.045 250.709 78.018 250.339 77.977 C 250.219 77.964 250.099 77.951 249.976 77.938 C 249.889 77.928 249.802 77.918 249.712 77.908 C 249.911 77.211 250.228 76.688 250.64 76.097 C 251.658 74.632 251.51 73.14 251.267 71.422 C 251.057 71.491 251.057 71.491 250.843 71.561 C 251.054 70.875 251.353 70.261 251.691 69.629 C 251.54 69.66 251.388 69.691 251.232 69.724 C 250.701 69.767 250.701 69.767 250.357 69.568 C 250.284 69.497 250.211 69.426 250.136 69.353 C 250.206 69.216 250.206 69.216 250.277 69.077 C 250.371 69.168 250.464 69.259 250.56 69.353 C 251.087 69.433 251.334 69.398 251.789 69.12 C 252.844 67.928 252.591 65.817 252.566 64.342 C 252.564 64.117 252.562 63.893 252.561 63.668 C 252.556 63.125 252.549 62.582 252.54 62.039 C 252.587 62.039 252.633 62.039 252.681 62.039 C 252.822 63.269 252.961 64.498 253.106 65.765 C 254.035 64.289 255.153 62.451 255.041 60.642 C 254.87 60.185 254.499 59.948 254.112 59.661 C 253.657 59.29 253.36 58.832 253.106 58.313 C 253.106 58.222 253.106 58.131 253.106 58.037 Z" fill="#DB4324" style="stroke-width: 1;"/><path d="M 250.419 41.063 C 250.465 41.155 250.512 41.247 250.56 41.34 C 250.516 41.447 250.472 41.551 250.427 41.662 C 250.258 42.077 250.203 42.276 250.277 42.718 C 250.39 42.902 250.508 43.079 250.631 43.255 C 251.01 43.804 251.054 44.138 250.984 44.791 C 252.868 45.023 254.606 45.008 256.457 44.607 C 257.574 44.384 258.416 44.52 259.47 44.928 C 259.455 44.794 259.441 44.66 259.425 44.523 C 259.42 44.035 259.567 43.747 259.823 43.332 C 260.137 42.818 260.274 42.499 260.177 41.892 C 260.046 41.439 260.046 41.439 259.894 41.063 C 260.413 41.489 260.54 41.789 260.601 42.441 C 260.788 42.399 260.974 42.353 261.167 42.307 C 261.005 42.453 261.005 42.453 260.84 42.599 C 260.07 43.401 259.956 44.142 259.894 45.205 C 259.991 45.201 260.088 45.198 260.188 45.194 C 260.379 45.19 260.379 45.19 260.574 45.187 C 260.701 45.183 260.827 45.18 260.957 45.178 C 261.308 45.205 261.308 45.205 261.732 45.479 C 261.614 45.477 261.496 45.474 261.374 45.471 C 259.198 45.51 257.644 46.676 255.908 47.845 C 255.805 47.914 255.702 47.983 255.595 48.054 C 255.504 48.117 255.412 48.179 255.318 48.243 C 255.086 48.378 255.086 48.378 254.803 48.378 C 254.803 48.469 254.803 48.56 254.803 48.654 C 254.897 48.668 254.991 48.682 255.088 48.697 C 255.612 48.815 256.098 49.005 256.597 49.197 C 258.105 49.759 259.404 49.953 261.025 49.896 C 261.204 49.89 261.383 49.885 261.568 49.878 C 262.449 49.895 262.449 49.895 263.226 49.585 C 263.461 49.306 263.573 49.053 263.703 48.714 C 263.775 48.532 263.775 48.532 263.848 48.347 C 263.921 48.157 263.921 48.157 263.995 47.964 C 264.091 47.713 264.188 47.463 264.287 47.213 C 264.329 47.103 264.372 46.992 264.415 46.878 C 264.567 46.571 264.738 46.404 264.985 46.17 C 265.056 45.835 265.056 45.835 265.065 45.471 C 265.097 44.819 265.097 44.819 265.409 44.514 C 265.765 45.813 265.632 46.66 265.1 47.886 C 265.041 48.031 264.983 48.176 264.923 48.325 C 264.278 49.895 264.278 49.895 263.712 50.448 C 263.67 50.722 263.67 50.722 263.678 51.041 C 263.678 51.166 263.678 51.291 263.677 51.419 C 263.678 51.556 263.679 51.693 263.68 51.835 C 263.68 51.978 263.68 52.122 263.68 52.271 C 263.68 52.749 263.682 53.227 263.685 53.705 C 263.685 54.035 263.686 54.366 263.686 54.696 C 263.687 55.568 263.69 56.44 263.693 57.311 C 263.696 58.2 263.697 59.089 263.698 59.978 C 263.701 61.723 263.706 63.468 263.712 65.213 C 263.572 65.213 263.432 65.213 263.288 65.213 C 263.241 65.395 263.194 65.577 263.146 65.765 C 263.143 65.64 263.143 65.64 263.14 65.513 C 263.086 63.26 263.086 63.26 262.581 61.073 C 262.522 60.884 262.463 60.694 262.404 60.504 C 262.028 59.322 261.571 58.213 261.012 57.101 C 259.894 54.85 259.894 54.85 259.894 53.898 C 259.714 54.006 259.535 54.116 259.355 54.225 C 259.255 54.286 259.155 54.347 259.051 54.41 C 258.811 54.557 258.574 54.71 258.338 54.863 C 258.531 54.428 258.737 54.183 259.116 53.889 C 259.461 53.62 259.643 53.437 259.894 53.07 C 259.933 52.676 259.959 52.291 259.974 51.896 C 260.019 50.773 260.019 50.773 260.177 50.31 C 260.073 50.309 259.97 50.309 259.864 50.309 C 258.234 50.25 256.732 49.757 255.25 49.111 C 254.67 48.876 254.418 48.901 253.813 49.068 C 253.419 49.268 253.035 49.483 252.65 49.698 C 251.827 50.112 251.05 50.184 250.136 50.172 C 250.211 50.664 250.292 51.155 250.374 51.647 C 250.396 51.785 250.416 51.924 250.438 52.068 C 250.58 52.888 250.705 53.365 251.409 53.898 C 251.597 54.082 251.786 54.266 251.974 54.449 C 251.928 54.54 251.881 54.632 251.833 54.725 C 251.626 54.55 251.418 54.375 251.212 54.2 C 250.969 54.007 250.969 54.007 250.56 53.898 C 250.538 53.986 250.515 54.075 250.492 54.166 C 250.154 55.442 249.7 56.654 249.125 57.845 C 247.767 60.661 246.756 63.582 247.863 66.653 C 248.006 67.002 248.006 67.002 248.174 67.307 C 248.333 67.632 248.318 67.894 248.297 68.248 C 248.26 68.166 248.222 68.084 248.182 67.999 C 248.013 67.694 247.867 67.499 247.59 67.283 C 247.45 67.283 247.31 67.283 247.166 67.283 C 246.008 64.437 246.46 61.791 247.59 59.003 C 247.879 58.354 248.185 57.712 248.492 57.07 C 249.594 54.745 249.846 53.217 249.287 50.723 C 249.158 50.715 249.028 50.707 248.895 50.698 C 248.643 50.681 248.643 50.681 248.386 50.663 C 248.135 50.647 248.135 50.647 247.879 50.629 C 247.449 50.586 247.449 50.586 247.166 50.448 C 247.166 50.721 247.166 50.994 247.166 51.276 C 241.519 51.276 235.872 51.276 230.054 51.276 C 230.054 51.23 230.054 51.185 230.054 51.138 C 235.654 51.138 241.255 51.138 247.025 51.138 C 247.025 50.819 247.025 50.5 247.025 50.172 C 247.118 50.172 247.211 50.172 247.307 50.172 C 247.377 49.967 247.377 49.967 247.449 49.758 C 247.536 49.759 247.624 49.761 247.714 49.762 C 248.118 49.768 248.521 49.772 248.925 49.775 C 249.131 49.779 249.131 49.779 249.342 49.782 C 252.285 49.801 254.528 48.246 256.915 46.748 C 258.946 45.479 258.946 45.479 259.611 45.479 C 259.611 45.388 259.611 45.297 259.611 45.205 C 258.004 44.785 256.666 44.869 255.086 45.342 C 254.079 45.558 253.178 45.554 252.186 45.281 C 251.093 44.989 249.99 44.966 248.863 44.928 C 248.863 44.837 248.863 44.746 248.863 44.652 C 249.423 44.652 249.983 44.652 250.56 44.652 C 250.458 43.632 250.458 43.632 249.853 42.86 C 249.713 42.768 249.573 42.676 249.429 42.583 C 249.289 42.445 249.289 42.445 249.146 42.307 C 249.379 42.353 249.613 42.395 249.853 42.441 C 249.875 42.296 249.875 42.296 249.897 42.142 C 250.003 41.72 250.175 41.424 250.419 41.063 Z" fill="#E05E27" style="stroke-width: 1;"/><path d="M 254.52 28.781 C 255.022 28.774 255.451 28.789 255.934 28.92 C 256.074 28.92 256.214 28.92 256.358 28.92 C 256.597 29.1 256.833 29.284 257.065 29.472 C 257.206 29.518 257.346 29.565 257.49 29.611 C 257.954 30.175 257.964 30.643 257.949 31.354 C 257.947 31.534 257.945 31.715 257.943 31.903 C 257.914 32.371 257.914 32.371 257.773 32.786 C 257.912 32.828 258.052 32.874 258.197 32.924 C 258.181 33.12 258.162 33.312 258.144 33.507 C 258.129 33.673 258.129 33.673 258.114 33.838 C 258.053 34.175 257.944 34.421 257.773 34.717 C 257.679 34.717 257.586 34.717 257.49 34.717 C 257.487 34.851 257.484 34.989 257.481 35.131 C 257.381 35.846 256.878 36.306 256.358 36.786 C 255.721 37.201 255.124 37.193 254.378 37.063 C 253.554 36.617 253.095 35.995 252.823 35.131 C 252.823 34.993 252.823 34.859 252.823 34.717 C 252.683 34.671 252.543 34.625 252.399 34.579 C 252.008 34.08 252.095 33.523 252.116 32.924 C 252.209 32.924 252.303 32.924 252.399 32.924 C 252.375 32.766 252.352 32.609 252.328 32.448 C 252.126 30.816 252.126 30.816 252.452 30.225 C 252.681 30.025 252.681 30.025 252.964 30.025 C 252.918 29.887 252.871 29.753 252.823 29.611 C 253.155 29.284 253.382 29.234 253.831 29.108 C 253.959 29.073 254.088 29.039 254.22 29 C 254.319 28.973 254.418 28.946 254.52 28.92 C 254.52 28.873 254.52 28.831 254.52 28.781 Z" fill="#030201" style="stroke-width: 1;"/><path d="M 250.419 41.063 C 250.465 41.155 250.512 41.247 250.56 41.34 C 250.516 41.447 250.472 41.551 250.427 41.662 C 250.258 42.077 250.203 42.276 250.277 42.718 C 250.39 42.902 250.508 43.079 250.631 43.255 C 251.01 43.804 251.054 44.138 250.984 44.791 C 252.868 45.023 254.606 45.008 256.457 44.607 C 257.574 44.384 258.416 44.52 259.47 44.928 C 259.455 44.794 259.441 44.66 259.425 44.523 C 259.42 44.035 259.567 43.747 259.823 43.332 C 260.137 42.818 260.274 42.499 260.177 41.892 C 260.046 41.439 260.046 41.439 259.894 41.063 C 260.413 41.489 260.54 41.789 260.601 42.441 C 260.788 42.399 260.974 42.353 261.167 42.307 C 261.005 42.453 261.005 42.453 260.84 42.599 C 260.07 43.401 259.956 44.142 259.894 45.205 C 259.991 45.201 260.088 45.198 260.188 45.194 C 260.379 45.19 260.379 45.19 260.574 45.187 C 260.701 45.183 260.827 45.18 260.957 45.178 C 261.308 45.205 261.308 45.205 261.732 45.479 C 261.614 45.477 261.496 45.474 261.374 45.471 C 259.198 45.51 257.644 46.676 255.908 47.845 C 255.805 47.914 255.702 47.983 255.595 48.054 C 255.504 48.117 255.412 48.179 255.318 48.243 C 255.086 48.378 255.086 48.378 254.803 48.378 C 254.803 48.469 254.803 48.56 254.803 48.654 C 254.896 48.699 254.989 48.745 255.086 48.792 C 254.907 48.82 254.73 48.849 254.546 48.878 C 253.978 48.998 253.538 49.198 253.035 49.482 C 252.066 50.024 251.246 50.187 250.136 50.172 C 250.211 50.664 250.292 51.155 250.374 51.647 C 250.396 51.785 250.416 51.924 250.438 52.068 C 250.58 52.888 250.705 53.365 251.409 53.898 C 251.597 54.082 251.786 54.266 251.974 54.449 C 251.928 54.54 251.881 54.632 251.833 54.725 C 251.626 54.55 251.418 54.375 251.212 54.2 C 250.969 54.007 250.969 54.007 250.56 53.898 C 250.538 53.986 250.515 54.075 250.492 54.166 C 250.154 55.442 249.7 56.654 249.125 57.845 C 247.767 60.661 246.756 63.582 247.863 66.653 C 248.006 67.002 248.006 67.002 248.174 67.307 C 248.333 67.632 248.318 67.894 248.297 68.248 C 248.26 68.166 248.222 68.084 248.182 67.999 C 248.013 67.694 247.867 67.499 247.59 67.283 C 247.45 67.283 247.31 67.283 247.166 67.283 C 246.008 64.437 246.46 61.791 247.59 59.003 C 247.879 58.354 248.185 57.712 248.492 57.07 C 249.594 54.745 249.846 53.217 249.287 50.723 C 249.158 50.715 249.028 50.707 248.895 50.698 C 248.643 50.681 248.643 50.681 248.386 50.663 C 248.135 50.647 248.135 50.647 247.879 50.629 C 247.449 50.586 247.449 50.586 247.166 50.448 C 247.166 50.721 247.166 50.994 247.166 51.276 C 241.519 51.276 235.872 51.276 230.054 51.276 C 230.054 51.23 230.054 51.185 230.054 51.138 C 235.654 51.138 241.255 51.138 247.025 51.138 C 247.025 50.819 247.025 50.5 247.025 50.172 C 247.118 50.172 247.211 50.172 247.307 50.172 C 247.377 49.967 247.377 49.967 247.449 49.758 C 247.536 49.759 247.624 49.761 247.714 49.762 C 248.118 49.768 248.521 49.772 248.925 49.775 C 249.131 49.779 249.131 49.779 249.342 49.782 C 252.285 49.801 254.528 48.246 256.915 46.748 C 258.946 45.479 258.946 45.479 259.611 45.479 C 259.611 45.388 259.611 45.297 259.611 45.205 C 258.004 44.785 256.666 44.869 255.086 45.342 C 254.079 45.558 253.178 45.554 252.186 45.281 C 251.093 44.989 249.99 44.966 248.863 44.928 C 248.863 44.837 248.863 44.746 248.863 44.652 C 249.423 44.652 249.983 44.652 250.56 44.652 C 250.458 43.632 250.458 43.632 249.853 42.86 C 249.713 42.768 249.573 42.676 249.429 42.583 C 249.289 42.445 249.289 42.445 249.146 42.307 C 249.379 42.353 249.613 42.395 249.853 42.441 C 249.875 42.296 249.875 42.296 249.897 42.142 C 250.003 41.72 250.175 41.424 250.419 41.063 Z" fill="#D2712F" style="stroke-width: 1;"/><path d="M 253.106 58.037 C 253.583 58.467 253.95 58.945 254.326 59.457 C 254.507 59.711 254.507 59.711 254.803 59.831 C 255.512 59.905 255.512 59.905 256.111 59.581 C 256.192 59.482 256.274 59.382 256.358 59.279 C 256.5 59.141 256.641 59.003 256.783 58.865 C 256.628 59.33 256.493 59.562 256.129 59.909 C 255.672 60.422 255.721 60.936 255.749 61.589 C 255.818 62.299 255.933 62.996 256.076 63.695 C 255.982 63.695 255.889 63.695 255.793 63.695 C 255.817 63.837 255.842 63.978 255.866 64.125 C 255.965 64.906 255.923 65.681 255.892 66.466 C 255.872 66.988 255.855 67.511 255.838 68.033 C 255.835 68.151 255.831 68.27 255.827 68.392 C 255.772 70.21 255.747 72.029 255.718 73.848 C 255.713 74.14 255.708 74.432 255.704 74.724 C 255.686 75.831 255.668 76.939 255.651 78.046 C 255.605 78.046 255.558 78.046 255.51 78.046 C 255.463 73.356 255.416 68.665 255.368 63.833 C 255.053 64.14 254.896 64.431 254.688 64.816 C 254.292 65.547 254.292 65.547 254.064 65.878 C 253.583 66.576 253.354 67.223 253.167 68.042 C 252.708 70.017 252.708 70.017 252.116 70.595 C 252.085 70.966 252.076 71.211 252.257 71.544 C 252.419 71.879 252.433 72.1 252.43 72.469 C 252.43 72.593 252.43 72.718 252.43 72.846 C 252.429 72.979 252.428 73.112 252.426 73.249 C 252.426 73.386 252.425 73.523 252.425 73.664 C 252.423 74.101 252.42 74.539 252.416 74.976 C 252.415 75.272 252.414 75.569 252.412 75.866 C 252.409 76.593 252.405 77.319 252.399 78.046 C 252.195 78.047 251.992 78.047 251.789 78.048 C 251.676 78.049 251.563 78.049 251.447 78.049 C 251.074 78.045 250.709 78.018 250.339 77.977 C 250.219 77.964 250.099 77.951 249.976 77.938 C 249.889 77.928 249.802 77.918 249.712 77.908 C 249.911 77.211 250.228 76.688 250.64 76.097 C 251.658 74.632 251.51 73.14 251.267 71.422 C 251.057 71.491 251.057 71.491 250.843 71.561 C 251.054 70.875 251.353 70.261 251.691 69.629 C 251.54 69.66 251.388 69.691 251.232 69.724 C 250.701 69.767 250.701 69.767 250.357 69.568 C 250.284 69.497 250.211 69.426 250.136 69.353 C 250.206 69.216 250.206 69.216 250.277 69.077 C 250.371 69.168 250.464 69.259 250.56 69.353 C 251.087 69.433 251.334 69.398 251.789 69.12 C 252.844 67.928 252.591 65.817 252.566 64.342 C 252.564 64.117 252.562 63.893 252.561 63.668 C 252.556 63.125 252.549 62.582 252.54 62.039 C 252.587 62.039 252.633 62.039 252.681 62.039 C 252.822 63.269 252.961 64.498 253.106 65.765 C 254.035 64.289 255.153 62.451 255.041 60.642 C 254.87 60.185 254.499 59.948 254.112 59.661 C 253.657 59.29 253.36 58.832 253.106 58.313 C 253.106 58.222 253.106 58.131 253.106 58.037 Z" fill="#D15229" style="stroke-width: 1;"/><path d="M 250.136 54.036 C 250.297 54.248 250.297 54.248 250.419 54.587 C 250.333 54.949 250.235 55.261 250.1 55.605 C 250.044 55.758 250.044 55.758 249.985 55.914 C 249.705 56.642 249.379 57.346 249.039 58.05 C 247.71 60.805 246.782 63.657 247.863 66.653 C 248.006 67.002 248.006 67.002 248.174 67.307 C 248.333 67.632 248.318 67.894 248.297 68.248 C 248.26 68.166 248.222 68.084 248.182 67.999 C 248.013 67.694 247.867 67.499 247.59 67.283 C 247.45 67.283 247.31 67.283 247.166 67.283 C 245.959 64.317 246.492 61.49 247.759 58.622 C 248.002 58.093 248.251 57.567 248.503 57.043 C 248.889 56.237 249.209 55.456 249.441 54.594 C 249.57 54.311 249.57 54.311 249.867 54.132 C 249.956 54.1 250.044 54.069 250.136 54.036 Z" fill="#DF652B" style="stroke-width: 1;"/><path d="M 251.126 70.732 C 251.523 70.741 251.523 70.741 251.974 70.87 C 252.448 71.669 252.455 72.383 252.44 73.289 C 252.439 73.426 252.438 73.562 252.438 73.703 C 252.436 74.136 252.43 74.569 252.425 75.002 C 252.423 75.297 252.421 75.591 252.419 75.886 C 252.415 76.606 252.407 77.326 252.399 78.046 C 252.195 78.047 251.992 78.047 251.789 78.048 C 251.676 78.048 251.563 78.049 251.447 78.049 C 251.074 78.045 250.709 78.018 250.339 77.977 C 250.219 77.964 250.099 77.951 249.976 77.938 C 249.889 77.928 249.802 77.918 249.712 77.908 C 249.911 77.211 250.228 76.688 250.64 76.097 C 251.658 74.632 251.51 73.14 251.267 71.422 C 251.127 71.468 250.987 71.514 250.843 71.561 C 250.936 71.287 251.03 71.014 251.126 70.732 Z" fill="#D94424" style="stroke-width: 1;"/><path d="M 252.54 29.611 C 252.633 29.745 252.727 29.883 252.823 30.025 C 252.753 30.091 252.684 30.156 252.612 30.225 C 252.3 30.739 252.353 31.196 252.372 31.784 C 252.374 31.891 252.376 32.002 252.378 32.118 C 252.383 32.386 252.39 32.651 252.399 32.924 C 252.305 32.924 252.212 32.924 252.116 32.924 C 252.152 33.147 252.191 33.365 252.231 33.588 C 252.252 33.711 252.273 33.834 252.295 33.96 C 252.41 34.341 252.537 34.448 252.823 34.717 C 252.913 34.936 252.996 35.158 253.07 35.381 C 253.353 36.087 253.659 36.59 254.378 36.924 C 255.04 37.055 255.642 37.066 256.254 36.767 C 256.557 36.564 256.557 36.564 256.924 36.233 C 256.708 36.821 256.354 37.059 255.793 37.339 C 255.363 37.385 254.95 37.37 254.52 37.339 C 254.426 37.339 254.333 37.339 254.237 37.339 C 254.284 37.473 254.33 37.612 254.378 37.754 C 254.238 37.823 254.238 37.823 254.096 37.892 C 254.096 38.211 254.096 38.529 254.096 38.856 C 253.771 38.541 253.662 38.318 253.53 37.892 C 253.583 37.519 253.583 37.519 253.671 37.201 C 253.671 37.109 253.671 37.017 253.671 36.924 C 253.531 36.832 253.391 36.74 253.247 36.648 C 253.218 36.736 253.189 36.821 253.159 36.905 C 252.884 37.32 252.598 37.37 252.116 37.477 C 252.023 37.431 251.929 37.385 251.833 37.339 C 251.833 37.247 251.833 37.155 251.833 37.063 C 251.973 36.994 251.973 36.994 252.116 36.924 C 252.2 35.588 252.2 35.588 251.55 34.44 C 251.306 33.868 251.223 33.404 251.267 32.786 C 251.314 32.74 251.361 32.694 251.409 32.647 C 251.431 32.363 251.448 32.079 251.462 31.791 C 251.511 31.112 251.56 30.593 251.974 30.025 C 252.284 29.764 252.284 29.764 252.54 29.611 Z" fill="#E99139" style="stroke-width: 1;"/><path d="M 250.419 41.063 C 250.465 41.155 250.512 41.247 250.56 41.34 C 250.516 41.447 250.472 41.551 250.427 41.662 C 250.258 42.077 250.203 42.276 250.277 42.718 C 250.39 42.902 250.508 43.079 250.631 43.255 C 251.01 43.804 251.054 44.138 250.984 44.791 C 252.868 45.023 254.606 45.008 256.457 44.607 C 257.574 44.384 258.416 44.52 259.47 44.928 C 259.455 44.794 259.441 44.66 259.425 44.523 C 259.42 44.035 259.567 43.747 259.823 43.332 C 260.137 42.818 260.274 42.499 260.177 41.892 C 260.046 41.439 260.046 41.439 259.894 41.063 C 260.413 41.489 260.54 41.789 260.601 42.441 C 260.788 42.399 260.974 42.353 261.167 42.307 C 261.005 42.453 261.005 42.453 260.84 42.599 C 260.07 43.401 259.956 44.142 259.894 45.205 C 259.991 45.201 260.088 45.198 260.188 45.194 C 260.379 45.19 260.379 45.19 260.574 45.187 C 260.701 45.183 260.827 45.18 260.957 45.178 C 261.308 45.205 261.308 45.205 261.732 45.479 C 261.603 45.483 261.473 45.487 261.339 45.49 C 260.265 45.54 259.555 45.663 258.621 46.17 C 258.308 46.116 258.308 46.116 258.055 46.032 C 258.235 45.94 258.414 45.847 258.595 45.756 C 258.695 45.704 258.795 45.654 258.898 45.601 C 259.187 45.479 259.187 45.479 259.611 45.479 C 259.611 45.388 259.611 45.297 259.611 45.205 C 258.004 44.785 256.666 44.869 255.086 45.342 C 254.079 45.558 253.178 45.554 252.186 45.281 C 251.093 44.989 249.99 44.966 248.863 44.928 C 248.863 44.837 248.863 44.746 248.863 44.652 C 249.423 44.652 249.983 44.652 250.56 44.652 C 250.458 43.632 250.458 43.632 249.853 42.86 C 249.713 42.768 249.573 42.676 249.429 42.583 C 249.335 42.491 249.242 42.399 249.146 42.307 C 249.379 42.353 249.613 42.395 249.853 42.441 C 249.875 42.296 249.875 42.296 249.897 42.142 C 250.003 41.72 250.175 41.424 250.419 41.063 Z" fill="#CE6D2C" style="stroke-width: 1;"/><path d="M 252.257 37.339 C 252.643 37.285 252.643 37.285 252.964 37.201 C 252.918 37.339 252.871 37.473 252.823 37.615 C 252.438 37.788 252.062 37.942 251.665 38.088 C 251.054 38.314 250.506 38.522 249.964 38.886 C 249.528 39.159 249.319 39.193 248.81 39.167 C 248.687 39.159 248.563 39.159 248.435 39.151 C 248.343 39.143 248.251 39.14 248.156 39.132 C 248.156 39.086 248.156 39.04 248.156 38.994 C 248.482 38.994 248.809 38.994 249.146 38.994 C 249.146 38.859 249.146 38.721 249.146 38.583 C 248.726 38.583 248.306 38.583 247.873 38.583 C 247.873 38.533 247.873 38.491 247.873 38.441 C 247.962 38.441 248.051 38.437 248.143 38.437 C 248.963 38.391 249.472 38.245 250.144 37.792 C 250.823 37.354 251.454 37.124 252.257 37.339 Z" fill="#E28933" style="stroke-width: 1;"/><path d="M 264.419 41.201 C 264.466 41.201 264.513 41.201 264.561 41.201 C 264.561 41.566 264.561 41.931 264.561 42.307 C 264.701 42.261 264.841 42.215 264.985 42.169 C 265 42.246 265.016 42.326 265.032 42.407 C 265.144 42.937 265.258 43.39 265.498 43.885 C 265.75 44.523 265.73 45.08 265.692 45.756 C 265.645 45.756 265.599 45.756 265.551 45.756 C 265.457 45.436 265.364 45.119 265.268 44.791 C 265.261 44.882 265.254 44.973 265.247 45.067 C 265.142 46.279 265.142 46.279 264.844 46.86 C 264.711 46.445 264.696 46.327 264.844 45.893 C 264.953 44.905 264.795 44.261 264.278 43.409 C 264.045 43.501 263.811 43.593 263.571 43.685 C 263.62 43.624 263.669 43.559 263.72 43.493 C 264.26 42.741 264.398 42.115 264.419 41.201 Z" fill="#EA782D" style="stroke-width: 1;"/><path d="M 250.419 41.063 C 250.465 41.155 250.512 41.247 250.56 41.34 C 250.516 41.447 250.472 41.551 250.427 41.662 C 250.258 42.077 250.203 42.276 250.277 42.718 C 250.39 42.902 250.508 43.079 250.631 43.255 C 251.01 43.804 251.054 44.138 250.984 44.791 C 251.1 44.8 251.1 44.8 251.219 44.811 C 252.324 44.912 253.421 45.057 254.52 45.205 C 254.237 45.479 254.237 45.479 253.689 45.524 C 253.157 45.513 252.698 45.422 252.186 45.281 C 251.093 44.989 249.99 44.966 248.863 44.928 C 248.863 44.837 248.863 44.746 248.863 44.652 C 249.423 44.652 249.983 44.652 250.56 44.652 C 250.458 43.632 250.458 43.632 249.853 42.86 C 249.713 42.768 249.573 42.676 249.429 42.583 C 249.335 42.491 249.242 42.399 249.146 42.307 C 249.379 42.353 249.613 42.395 249.853 42.441 C 249.875 42.296 249.875 42.296 249.897 42.142 C 250.003 41.72 250.175 41.424 250.419 41.063 Z" fill="#C9722D" style="stroke-width: 1;"/><path d="M 254.263 28.432 C 254.455 28.451 254.455 28.451 254.65 28.47 C 254.747 28.482 254.844 28.493 254.944 28.505 C 254.804 28.551 254.664 28.597 254.52 28.643 C 254.567 28.781 254.613 28.916 254.661 29.058 C 254.512 29.1 254.364 29.138 254.211 29.181 C 253.572 29.361 253.572 29.361 252.964 29.611 C 252.918 29.745 252.871 29.883 252.823 30.025 C 252.73 29.933 252.636 29.841 252.54 29.749 C 252.047 30.052 251.871 30.313 251.691 30.855 C 251.645 30.855 251.598 30.855 251.55 30.855 C 251.612 30.102 251.764 29.641 252.257 29.058 C 252.95 28.547 253.401 28.328 254.263 28.432 Z" fill="#DB8B35" style="stroke-width: 1;"/><path d="M 253.106 35.823 C 253.265 35.953 253.424 36.084 253.583 36.218 C 253.671 36.291 253.76 36.364 253.851 36.441 C 254.033 36.594 254.208 36.759 254.378 36.924 C 255.165 37.047 255.867 37.043 256.526 36.579 C 256.657 36.464 256.789 36.352 256.924 36.233 C 256.708 36.821 256.354 37.059 255.793 37.339 C 255.363 37.385 254.95 37.37 254.52 37.339 C 254.426 37.339 254.333 37.339 254.237 37.339 C 254.284 37.473 254.33 37.612 254.378 37.754 C 254.238 37.823 254.238 37.823 254.096 37.892 C 254.096 38.211 254.096 38.529 254.096 38.856 C 253.771 38.541 253.662 38.318 253.53 37.892 C 253.583 37.519 253.583 37.519 253.671 37.201 C 253.671 37.109 253.671 37.017 253.671 36.924 C 253.531 36.832 253.391 36.74 253.247 36.648 C 253.154 36.74 253.061 36.832 252.964 36.924 C 252.958 36.602 252.958 36.279 252.964 35.957 C 253.011 35.915 253.057 35.869 253.106 35.823 Z" fill="#925822" style="stroke-width: 1;"/><path d="M 259.47 43.962 C 259.516 43.962 259.563 43.962 259.611 43.962 C 259.611 44.326 259.611 44.691 259.611 45.066 C 259.328 45.205 259.328 45.205 258.922 45.074 C 257.916 44.776 256.874 44.832 255.881 45.144 C 254.949 45.429 254.063 45.317 253.106 45.205 C 253.106 45.158 253.106 45.114 253.106 45.066 C 253.263 45.049 253.42 45.033 253.582 45.016 C 254.942 44.873 254.942 44.873 256.288 44.634 C 257.454 44.396 258.363 44.499 259.47 44.928 C 259.47 44.609 259.47 44.292 259.47 43.962 Z" fill="#BC6126" style="stroke-width: 1;"/><path d="M 264.702 40.238 C 265.052 40.564 265.255 40.756 265.292 41.247 C 265.292 41.366 265.293 41.489 265.294 41.616 C 265.297 41.739 265.298 41.862 265.301 41.985 C 265.268 42.307 265.268 42.307 264.985 42.583 C 264.938 42.491 264.892 42.399 264.844 42.307 C 264.75 42.307 264.657 42.307 264.561 42.307 C 264.529 42.038 264.5 41.77 264.472 41.505 C 264.456 41.355 264.44 41.205 264.422 41.055 C 264.419 40.648 264.419 40.648 264.702 40.238 Z" fill="#F28235" style="stroke-width: 1;"/><path d="M 253.106 58.037 C 253.583 58.467 253.95 58.945 254.326 59.457 C 254.507 59.711 254.507 59.711 254.803 59.831 C 255.512 59.905 255.512 59.905 256.111 59.581 C 256.192 59.482 256.274 59.382 256.358 59.279 C 256.5 59.141 256.641 59.003 256.783 58.865 C 256.572 59.499 256.238 59.891 255.793 60.383 C 255.653 60.337 255.513 60.292 255.368 60.245 C 255.275 60.382 255.182 60.519 255.086 60.659 C 254.341 59.954 253.585 59.222 253.106 58.313 C 253.106 58.222 253.106 58.131 253.106 58.037 Z" fill="#CC582B" style="stroke-width: 1;"/><path d="M 254.237 48.378 C 254.284 48.469 254.33 48.56 254.378 48.654 C 254.472 48.699 254.565 48.745 254.661 48.792 C 254.527 48.846 254.393 48.9 254.255 48.956 C 253.813 49.137 253.396 49.348 252.973 49.568 C 252.334 49.882 251.842 50.022 251.126 50.034 C 250.811 49.896 250.811 49.896 250.56 49.758 C 250.823 49.711 250.823 49.711 251.09 49.663 C 252.21 49.421 253.267 48.97 254.237 48.378 Z" fill="#D67228" style="stroke-width: 1;"/><path d="M 252.54 62.039 C 252.587 62.039 252.633 62.039 252.681 62.039 C 252.822 63.314 252.961 64.589 253.106 65.903 C 253.013 65.948 252.919 65.994 252.823 66.041 C 252.776 66.177 252.73 66.314 252.681 66.455 C 252.51 64.983 252.526 63.518 252.54 62.039 Z" fill="#A1411F" style="stroke-width: 1;"/><path d="M 264.419 41.201 C 264.466 41.201 264.513 41.201 264.561 41.201 C 264.561 41.566 264.561 41.931 264.561 42.307 C 264.701 42.261 264.841 42.215 264.985 42.169 C 265.032 42.395 265.078 42.622 265.126 42.86 C 265.036 42.894 264.945 42.925 264.852 42.964 C 264.534 43.109 264.534 43.109 264.455 43.428 C 264.443 43.513 264.431 43.597 264.419 43.685 C 264.326 43.597 264.233 43.505 264.136 43.409 C 263.856 43.547 263.856 43.547 263.571 43.685 C 263.62 43.624 263.669 43.559 263.72 43.493 C 264.26 42.741 264.398 42.115 264.419 41.201 Z" fill="#CF702E" style="stroke-width: 1;"/><path d="M 263.005 65.213 C 263.164 65.437 263.164 65.437 263.288 65.765 C 263.164 66.213 263.164 66.213 263.005 66.593 C 262.83 66.099 262.899 65.718 263.005 65.213 Z M 263.288 65.213 C 263.428 65.213 263.568 65.213 263.712 65.213 C 263.759 66.26 263.805 67.307 263.854 68.387 C 263.76 68.387 263.667 68.387 263.571 68.387 C 263.567 68.31 263.564 68.234 263.56 68.155 C 263.544 67.807 263.526 67.458 263.509 67.11 C 263.503 66.99 263.498 66.869 263.492 66.745 C 263.486 66.629 263.48 66.512 263.474 66.392 C 263.469 66.285 263.464 66.178 263.458 66.068 C 263.43 65.771 263.37 65.5 263.288 65.213 Z" fill="#BE4929" style="stroke-width: 1;"/><path d="M 246.883 38.856 C 246.977 38.902 247.07 38.948 247.166 38.994 C 247.079 39.063 246.992 39.128 246.902 39.197 C 246.136 39.819 245.705 40.249 245.469 41.201 C 245.433 41.662 245.433 41.662 245.469 42.031 C 245.376 42.077 245.282 42.119 245.186 42.169 C 245.103 41.29 245.14 40.668 245.67 39.938 C 246.033 39.527 246.442 39.182 246.883 38.856 Z" fill="#E68E3A" style="stroke-width: 1;"/><path d="M 251.833 39.547 C 252.828 39.512 253.687 39.539 254.52 40.115 C 254.66 40.245 254.66 40.245 254.803 40.372 C 254.168 40.257 253.545 40.107 252.92 39.954 C 252.815 39.927 252.711 39.9 252.603 39.873 C 252.346 39.812 252.089 39.746 251.833 39.685 C 251.833 39.639 251.833 39.593 251.833 39.547 Z" fill="#A36329" style="stroke-width: 1;"/><path d="M 253.813 36.786 C 254.096 36.924 254.096 36.924 254.255 37.347 C 254.295 37.481 254.336 37.615 254.378 37.754 C 254.238 37.823 254.238 37.823 254.096 37.892 C 254.096 38.211 254.096 38.529 254.096 38.856 C 253.771 38.541 253.662 38.318 253.53 37.892 C 253.578 37.493 253.683 37.162 253.813 36.786 Z" fill="#5E3C1F" style="stroke-width: 1;"/><path d="M 261.025 67.283 C 261.072 67.283 261.119 67.283 261.167 67.283 C 261.104 68.205 260.994 69.015 260.38 69.758 C 260.177 69.904 260.177 69.904 259.894 69.904 C 259.894 69.629 259.894 69.629 260.177 69.353 C 260.575 68.692 260.835 68.024 261.025 67.283 Z" fill="#632816" style="stroke-width: 1;"/><path d="M 256.358 44.928 C 256.358 44.973 256.358 45.019 256.358 45.066 C 255.242 45.385 254.256 45.322 253.106 45.205 C 253.106 45.158 253.106 45.114 253.106 45.066 C 253.489 45.016 253.872 44.967 254.255 44.919 C 254.362 44.905 254.47 44.891 254.581 44.876 C 255.208 44.8 255.734 44.789 256.358 44.928 Z" fill="#A25925" style="stroke-width: 1;"/><path d="M 256.076 47.551 C 256.169 47.595 256.262 47.642 256.358 47.688 C 256.102 48.033 256.102 48.033 255.793 48.378 C 255.653 48.378 255.513 48.378 255.368 48.378 C 255.415 48.514 255.462 48.651 255.51 48.792 C 255.276 48.746 255.043 48.701 254.803 48.654 C 254.803 48.563 254.803 48.472 254.803 48.378 C 255.081 48.17 255.081 48.17 255.439 47.947 C 255.557 47.872 255.675 47.798 255.797 47.721 C 255.889 47.665 255.981 47.608 256.076 47.551 Z" fill="#1E100A" style="stroke-width: 1;"/><path d="M 260.46 73.354 C 260.666 73.499 260.666 73.499 260.884 73.768 C 260.956 74.232 260.956 74.232 260.981 74.76 C 260.99 74.936 260.999 75.111 261.009 75.292 C 261.015 75.427 261.02 75.561 261.025 75.7 C 260.674 75.358 260.665 75.155 260.584 74.683 C 260.559 74.551 260.536 74.419 260.512 74.283 C 260.46 73.906 260.46 73.906 260.46 73.354 Z" fill="#87311E" style="stroke-width: 1;"/><path d="M 250.419 41.063 C 250.618 41.455 250.491 41.639 250.357 42.046 C 250.316 42.173 250.275 42.299 250.234 42.426 C 250.185 42.572 250.185 42.572 250.136 42.718 C 249.639 42.718 249.518 42.606 249.146 42.307 C 249.496 42.376 249.496 42.376 249.853 42.441 C 249.875 42.296 249.875 42.296 249.897 42.142 C 250.003 41.72 250.175 41.424 250.419 41.063 Z" fill="#BD7531" style="stroke-width: 1;"/><path d="M 253.53 28.371 C 253.997 28.413 254.463 28.459 254.944 28.505 C 254.804 28.551 254.664 28.597 254.52 28.643 C 254.52 28.735 254.52 28.827 254.52 28.92 C 254.24 28.92 253.96 28.92 253.671 28.92 C 253.625 28.739 253.578 28.555 253.53 28.371 Z" fill="#EC9738" style="stroke-width: 1;"/><path d="M 255.934 60.107 C 255.981 60.107 256.028 60.107 256.076 60.107 C 256.059 60.326 256.041 60.544 256.023 60.763 C 256.007 60.945 256.007 60.945 255.992 61.131 C 255.934 61.486 255.834 61.73 255.651 62.039 C 255.644 61.769 255.638 61.499 255.634 61.228 C 255.63 61.078 255.627 60.927 255.624 60.772 C 255.651 60.383 255.651 60.383 255.934 60.107 Z" fill="#120806" style="stroke-width: 1;"/><path d="M 249.994 42.718 C 250.419 42.86 250.419 42.86 250.657 43.144 C 250.904 43.681 250.874 44.065 250.843 44.652 C 250.796 44.652 250.75 44.652 250.701 44.652 C 250.674 44.559 250.647 44.465 250.618 44.369 C 250.582 44.246 250.545 44.123 250.507 43.996 C 250.471 43.877 250.435 43.754 250.398 43.628 C 250.288 43.305 250.159 43.017 249.994 42.718 Z" fill="#E98136" style="stroke-width: 1;"/><path d="M 227.084 31.131 C 227.178 31.173 227.271 31.219 227.367 31.265 C 227.066 31.914 226.714 32.394 226.236 32.924 C 226.189 32.832 226.142 32.74 226.094 32.647 C 226.297 32.287 226.297 32.287 226.58 31.868 C 226.674 31.734 226.767 31.592 226.863 31.45 C 226.936 31.342 227.009 31.238 227.084 31.131 Z" fill="#E79D38" style="stroke-width: 1;"/><path d="M 254.52 28.781 C 254.8 28.781 255.08 28.781 255.368 28.781 C 254.992 29.257 254.533 29.334 253.954 29.472 C 253.861 29.38 253.767 29.288 253.671 29.196 C 253.951 29.108 254.231 29.016 254.52 28.92 C 254.52 28.873 254.52 28.831 254.52 28.781 Z" fill="#25190D" style="stroke-width: 1;"/><path d="M 255.368 60.107 C 255.462 60.153 255.555 60.198 255.651 60.245 C 255.558 60.701 255.465 61.156 255.368 61.625 C 255.322 61.625 255.275 61.625 255.227 61.625 C 255.223 61.398 255.221 61.171 255.218 60.944 C 255.217 60.817 255.215 60.691 255.213 60.56 C 255.227 60.245 255.227 60.245 255.368 60.107 Z" fill="#F06736" style="stroke-width: 1;"/><path d="M 251.691 68.801 C 251.832 68.846 251.972 68.892 252.116 68.939 C 251.71 69.312 251.506 69.483 250.94 69.525 C 250.815 69.514 250.69 69.502 250.56 69.49 C 250.56 69.445 250.56 69.399 250.56 69.353 C 250.761 69.293 250.761 69.293 250.967 69.232 C 251.416 69.109 251.416 69.109 251.691 68.801 Z" fill="#1F0F0A" style="stroke-width: 1;"/><path d="M 259.187 53.76 C 259.327 53.805 259.467 53.851 259.611 53.898 C 259.192 54.227 258.77 54.551 258.338 54.863 C 258.542 54.399 258.81 54.103 259.187 53.76 Z" fill="#C4561F" style="stroke-width: 1;"/><path d="M 254.237 48.378 C 254.284 48.469 254.33 48.56 254.378 48.654 C 254.472 48.699 254.565 48.745 254.661 48.792 C 254.288 48.929 253.914 49.065 253.53 49.206 C 253.671 48.654 253.671 48.654 253.963 48.481 C 254.053 48.447 254.144 48.413 254.237 48.378 Z" fill="#C86A25" style="stroke-width: 1;"/><path d="M 265.409 46.584 C 265.549 46.953 265.557 47.115 265.436 47.499 C 265.268 47.826 265.268 47.826 264.985 48.102 C 265.063 47.558 265.181 47.087 265.409 46.584 Z" fill="#453C38" style="stroke-width: 1;"/><g transform="matrix(0.41743, 0, 0, 0.282636, 151.285002, 64.0596)" style=""><g transform="translate(142.89498162269592, 107.41500091552734)"><path d="M25.15 0L2.43 0L2.43-54.98L24.45-54.98L24.45-44.35L13.63-44.35L13.63-33.66L24-33.66L24-23.30L13.63-23.30L13.63-10.69L25.15-10.69L25.15 0ZM41.60 0.51L41.60 0.51Q35.58 0.51 31.97-3.26L31.97-3.26L31.97-3.26Q28.35-7.04 28.35-13.63L28.35-13.63L28.35-38.98L28.35-38.98Q28.35-47.17 31.62-51.33L31.62-51.33L31.62-51.33Q34.88-55.49 41.86-55.49L41.86-55.49L41.86-55.49Q47.94-55.49 51.65-52.16L51.65-52.16L51.65-52.16Q55.36-48.83 55.36-42.56L55.36-42.56L55.36-33.09L44.42-33.09L44.42-41.22L44.42-41.22Q44.42-43.58 43.84-44.48L43.84-44.48L43.84-44.48Q43.26-45.38 41.86-45.38L41.86-45.38L41.86-45.38Q40.38-45.38 39.84-44.35L39.84-44.35L39.84-44.35Q39.30-43.33 39.30-41.34L39.30-41.34L39.30-13.76L39.30-13.76Q39.30-11.58 39.94-10.59L39.94-10.59L39.94-10.59Q40.58-9.60 41.86-9.60L41.86-9.60L41.86-9.60Q44.42-9.60 44.42-13.76L44.42-13.76L44.42-23.68L55.49-23.68L55.49-13.31L55.49-13.31Q55.49 0.51 41.60 0.51L41.60 0.51ZM71.81 0.51L71.81 0.51Q57.92 0.51 57.92-13.57L57.92-13.57L57.98-17.28L69.18-17.28L69.25-11.78L69.25-11.78Q69.25-10.11 69.89-9.25L69.89-9.25L69.89-9.25Q70.53-8.38 72.00-8.38L72.00-8.38L72.00-8.38Q74.24-8.38 74.24-12.03L74.24-12.03L74.24-12.03Q74.24-14.72 73.18-16.26L73.18-16.26L73.18-16.26Q72.13-17.79 69.82-19.52L69.82-19.52L63.87-24.13L63.87-24.13Q60.80-26.50 59.46-29.02L59.46-29.02L59.46-29.02Q58.11-31.55 58.11-36.16L58.11-36.16L58.11-36.16Q58.11-39.74 60.00-42.27L60.00-42.27L60.00-42.27Q61.89-44.80 65.02-46.08L65.02-46.08L65.02-46.08Q68.16-47.36 72.00-47.36L72.00-47.36L72.00-47.36Q85.63-47.36 85.63-33.79L85.63-33.79L85.63-32.90L74.05-32.90L74.05-34.69L74.05-34.69Q74.05-36.35 73.50-37.54L73.50-37.54L73.50-37.54Q72.96-38.72 71.68-38.72L71.68-38.72L71.68-38.72Q70.53-38.72 69.92-38.05L69.92-38.05L69.92-38.05Q69.31-37.38 69.31-36.22L69.31-36.22L69.31-36.22Q69.31-33.66 71.30-32.26L71.30-32.26L78.21-27.20L78.21-27.20Q81.92-24.45 83.90-21.22L83.90-21.22L83.90-21.22Q85.89-17.98 85.89-13.06L85.89-13.06L85.89-13.06Q85.89-6.53 82.18-3.01L82.18-3.01L82.18-3.01Q78.46 0.51 71.81 0.51L71.81 0.51ZM89.34 0L89.34-55.30L100.86-55.30L100.86-42.24L100.86-42.24Q102.66-47.36 107.71-47.36L107.71-47.36L107.71-47.36Q112.45-47.36 114.88-44.35L114.88-44.35L114.88-44.35Q117.31-41.34 117.31-36.10L117.31-36.10L117.31 0L106.11 0L106.11-35.39L106.11-35.39Q106.11-36.93 105.41-37.89L105.41-37.89L105.41-37.89Q104.70-38.85 103.36-38.85L103.36-38.85L103.36-38.85Q102.21-38.85 101.54-37.86L101.54-37.86L101.54-37.86Q100.86-36.86 100.86-35.46L100.86-35.46L100.86 0L89.34 0ZM130.18 0.51L130.18 0.51Q124.74 0.51 122.72-3.10L122.72-3.10L122.72-3.10Q120.70-6.72 120.70-13.44L120.70-13.44L120.70-13.44Q120.70-18.94 122.14-21.89L122.14-21.89L122.14-21.89Q123.58-24.83 126.14-26.21L126.14-26.21L126.14-26.21Q128.70-27.58 133.95-29.25L133.95-29.25L137.02-30.27L137.02-30.40L137.02-35.07L137.02-35.07Q137.02-36.93 136.29-37.92L136.29-37.92L136.29-37.92Q135.55-38.91 134.53-38.91L134.53-38.91L134.53-38.91Q133.63-38.91 132.96-38.08L132.96-38.08L132.96-38.08Q132.29-37.25 132.29-35.84L132.29-35.84L132.29-33.02L121.41-33.02L121.41-34.56L121.41-34.56Q121.41-41.47 124.64-44.42L124.64-44.42L124.64-44.42Q127.87-47.36 135.17-47.36L135.17-47.36L135.17-47.36Q140.99-47.36 144.64-44.32L144.64-44.32L144.64-44.32Q148.29-41.28 148.29-35.71L148.29-35.71L148.29 0L137.15 0L137.15-5.57L137.15-5.57Q136.32-2.69 134.50-1.09L134.50-1.09L134.50-1.09Q132.67 0.51 130.18 0.51L130.18 0.51ZM134.59-8.19L134.59-8.19Q135.87-8.19 136.42-9.25L136.42-9.25L136.42-9.25Q136.96-10.30 136.96-11.84L136.96-11.84L136.96-24.90L136.96-24.90Q134.46-23.94 133.28-22.46L133.28-22.46L133.28-22.46Q132.10-20.99 132.10-18.37L132.10-18.37L132.10-12.35L132.10-12.35Q132.10-8.19 134.59-8.19L134.59-8.19ZM152.58 9.34L152.58-46.85L163.97-46.85L163.97-44.35L163.97-44.35Q166.40-47.36 170.69-47.36L170.69-47.36L170.69-47.36Q176.13-47.36 178.27-43.71L178.27-43.71L178.27-43.71Q180.42-40.06 180.42-33.60L180.42-33.60L180.42-16.26L180.42-16.26Q180.42-10.75 179.78-7.26L179.78-7.26L179.78-7.26Q179.14-3.78 176.96-1.63L176.96-1.63L176.96-1.63Q174.78 0.51 170.37 0.51L170.37 0.51L170.37 0.51Q166.14 0.51 163.97-1.86L163.97-1.86L163.97 9.34L152.58 9.34ZM166.66-8.19L166.66-8.19Q168.19-8.19 168.64-9.60L168.64-9.60L168.64-9.60Q169.09-11.01 169.09-13.70L169.09-13.70L169.09-33.60L169.09-33.60Q169.09-36.03 168.64-37.31L168.64-37.31L168.64-37.31Q168.19-38.59 166.59-38.59L166.59-38.59L166.59-38.59Q163.97-38.59 163.97-33.73L163.97-33.73L163.97-13.18L163.97-13.18Q163.97-10.82 164.51-9.50L164.51-9.50L164.51-9.50Q165.06-8.19 166.66-8.19L166.66-8.19ZM197.70 0.51L197.70 0.51Q190.46 0.51 187.33-3.46L187.33-3.46L187.33-3.46Q184.19-7.42 184.19-15.30L184.19-15.30L184.19-34.11L184.19-34.11Q184.19-40.58 187.90-43.97L187.90-43.97L187.90-43.97Q191.62-47.36 198.27-47.36L198.27-47.36L198.27-47.36Q211.78-47.36 211.78-34.11L211.78-34.11L211.78-30.72L211.78-30.72Q211.78-25.60 211.65-22.40L211.65-22.40L195.39-22.40L195.39-13.31L195.39-13.31Q195.39-10.88 195.90-9.50L195.90-9.50L195.90-9.50Q196.42-8.13 198.08-8.13L198.08-8.13L198.08-8.13Q199.36-8.13 199.90-8.90L199.90-8.90L199.90-8.90Q200.45-9.66 200.54-10.66L200.54-10.66L200.54-10.66Q200.64-11.65 200.64-13.57L200.64-13.57L200.64-18.11L211.78-18.11L211.78-15.42L211.78-15.42Q211.78-7.23 208.61-3.36L208.61-3.36L208.61-3.36Q205.44 0.51 197.70 0.51L197.70 0.51ZM195.33-27.97L200.64-27.97L200.64-33.98L200.64-33.98Q200.64-39.04 198.14-39.04L198.14-39.04L198.14-39.04Q195.33-39.04 195.33-33.98L195.33-33.98L195.33-27.97Z" fill="url(#gradient-1)"/></g></g></g><style>text {
  font-size: 64px;
  font-family: Arial Black;
  dominant-baseline: central;
  text-anchor: middle;
}</style></svg>